<?xml version="1.0" encoding="UTF-8"?>
<!DOCTYPE svg PUBLIC "-//W3C//DTD SVG 1.1//EN" "http://www.w3.org/Graphics/SVG/1.1/DTD/svg11.dtd">
<!-- Creator: CorelDRAW SE -->
<svg xmlns="http://www.w3.org/2000/svg" xml:space="preserve" width="592.133mm" height="612.929mm" version="1.1" style="shape-rendering:geometricPrecision; text-rendering:geometricPrecision; image-rendering:optimizeQuality; fill-rule:evenodd; clip-rule:evenodd"
viewBox="0 0 60837 62974"
 xmlns:xlink="http://www.w3.org/1999/xlink">
 <defs>
  <style type="text/css">
   <![CDATA[
    .fil0 {fill:#171717}
   ]]>
  </style>
 </defs>
 <g id="Vrstva_x0020_1">
  <metadata id="CorelCorpID_0Corel-Layer"/>
  <g id="_1647767864">
   <path class="fil0" d="M53973 58299c151,-180 219,-110 333,-245 54,-65 58,-137 100,-210 59,-106 200,-247 332,-567 137,-332 307,-512 477,-736l457 -808c81,-161 125,-262 176,-452 159,-592 206,-979 -186,-1444 -166,-198 -158,-134 -374,-255 -387,-217 -551,-90 -839,115 -576,411 -385,503 -679,638 -164,-715 -679,-821 -917,-1019 -90,-75 -106,-115 -225,-177 -632,-329 -1042,52 -1480,631 -247,326 -316,808 -234,1313 89,554 288,727 539,1044 247,313 506,479 830,768 641,569 463,352 999,990 212,252 142,138 349,256l342 158z"/>
   <path class="fil0" d="M57445 59771l116 -132c250,-228 44,10 303,-501 139,-276 18,-142 383,-788 77,-138 191,-347 292,-473 373,-468 248,-657 -64,-1002 -179,-197 -753,-315 -998,-64 -89,91 -8,42 -136,111 -105,-177 -464,-486 -752,-544 -4,1 -1211,735 -473,1871 267,412 715,622 993,1171 73,144 162,295 336,351z"/>
  </g>
  <g id="_1647768776">
   <path class="fil0" d="M50560 2018c324,-109 445,-212 610,-243 675,-127 1837,-101 2427,79 250,1447 17,2213 12,3693 -1,314 -40,624 -73,913 -42,362 49,661 17,972 -70,676 45,3021 44,3878 0,368 -25,663 -32,990 -9,354 2,687 -250,808 -991,480 -1315,565 -2513,377 -112,-18 -293,-48 -403,-102 -93,-46 -210,-160 -316,-228 217,-501 253,-2113 247,-2700 -5,-513 72,-944 58,-1441l57 -2891c-59,-521 68,-1906 -63,-2740 -56,-360 104,-1052 178,-1365zm3645 10982c141,-951 117,-4249 91,-5517 -11,-513 125,-2135 121,-2703 -1,-230 33,-541 51,-811 75,-1118 -335,-1550 212,-1970 322,-248 710,-323 1152,-276 679,71 1070,-413 1361,363 258,690 228,2697 155,3567 -109,1322 47,6577 -177,7205 -121,340 -260,283 -643,319 -270,25 -518,128 -778,164 -807,111 -1028,-110 -1545,-341zm-7594 -10846c0,-15 38,-135 46,-157 70,-177 -22,-52 106,-132 68,-43 271,-112 360,-131 935,-204 771,-115 1569,10 412,65 517,-49 692,316 407,848 253,2265 295,2458 93,427 19,479 11,893l22 892c-25,310 -67,494 -67,865 0,1050 48,5114 -138,5598 -310,807 -1468,541 -1702,559 -347,28 -922,-230 -1065,-386 -433,-474 -43,-2789 -90,-3564 -39,-632 59,-1213 21,-1838l-5 -2746c17,-277 -21,-628 4,-885l64 -1371c-15,-188 -125,-283 -123,-381zm7520 -328c-843,-748 -2799,-573 -3440,-297 -488,211 -482,553 -523,914 -192,-159 -233,-907 -1675,-1094 -687,-89 -1191,-118 -1803,141 -175,74 -258,168 -311,398 -171,727 -109,1815 -119,2670 -15,1195 -168,2837 -192,4016 -4,156 25,421 16,622 -41,930 -237,2526 36,3335 258,765 997,886 1384,1031 110,41 18,10 124,56 84,36 41,2 128,55 165,101 107,158 521,151 337,-6 981,59 1299,-137 378,-233 176,-41 430,-249 5,-4 18,-14 28,-20 485,271 552,729 2162,646 360,-19 243,57 567,-72l759 -326c409,-108 511,171 628,-401 277,67 391,298 636,406 416,184 675,391 1310,229 543,-139 1107,-145 1214,-184 154,-56 194,-235 322,-347 108,-95 171,-70 221,-484 55,-463 9,-884 85,-1316 91,-524 -75,-1804 73,-2721 40,-243 -15,-346 -50,-559 -54,-317 50,-355 62,-622 49,-1122 145,-4263 -176,-5165 -341,-956 -520,-1160 -1522,-1250 -368,-33 -1605,88 -1988,406 -60,49 -45,45 -92,86l-114 82z"/>
   <path class="fil0" d="M55406 10414c-316,102 -400,238 -460,577 -113,646 -99,1196 456,1615 259,196 805,409 1036,-68 213,-440 324,-737 176,-1284 -67,-250 -204,-537 -379,-694 -148,-133 -602,-219 -829,-146z"/>
   <path class="fil0" d="M51429 10450c-322,106 -360,229 -427,602 -225,1263 566,1829 1283,1657 247,-59 413,-275 492,-548 80,-278 -123,-2114 -1348,-1711z"/>
   <path class="fil0" d="M47579 10515c-447,327 -732,1623 61,2019 290,144 1117,180 1166,-594 106,-1682 -1090,-1525 -1227,-1425z"/>
   <path class="fil0" d="M56158 2635l-161 272c-105,176 -79,168 -245,259 -174,-131 -279,-488 -450,-583 -32,10 -637,453 -437,743 167,-33 242,-311 443,-435l303 494c230,9 241,0 368,-133 94,-99 156,-217 269,-284 273,135 363,486 686,27l177 -104c5,-227 -4,-292 -188,-329 -100,169 -72,460 -288,389 -113,-37 -250,-266 -477,-316z"/>
   <path class="fil0" d="M50920 3218l113 -6c77,-41 213,-324 248,-380 262,186 275,624 678,274 137,-120 94,-117 313,-153 64,200 212,300 373,413 234,-72 276,-147 404,-299 104,-124 289,-214 163,-423 -301,52 -127,363 -586,436 -160,-162 -251,-420 -476,-486 -185,138 -135,338 -405,405 -240,-109 -149,-278 -450,-465 -78,64 -377,498 -384,622l9 62z"/>
   <path class="fil0" d="M47109 3281c203,-85 47,-126 358,-360 215,225 156,268 276,539 311,-27 323,-141 437,-305 109,-156 1,-57 143,-149 165,60 113,44 214,217 79,135 75,128 191,206 273,-114 114,-185 493,-273 12,-140 -6,-248 -55,-338 -271,122 -96,243 -461,321 -202,-305 -356,-612 -637,-147 -112,186 -56,156 -266,194 -61,-205 -125,-471 -335,-561 -154,76 -169,170 -280,301 -122,144 -237,198 -78,355z"/>
   <path class="fil0" d="M51485 3913c47,88 225,372 283,435 219,0 395,-215 500,-351 290,35 695,332 799,-87 -131,-92 -120,-27 -288,-22 -414,15 -361,-425 -876,190 -348,-162 -308,-809 -788,-154 -44,60 -337,485 -25,392 180,-53 70,-254 395,-403z"/>
   <path class="fil0" d="M56068 4290c-138,-82 -39,9 -127,-153 -49,-89 -37,-89 -94,-173 -79,-116 -129,-192 -275,-256 -144,87 -155,226 -288,380 -74,85 -302,248 -186,355 25,25 6,213 256,-147 91,-132 148,-220 278,-283 197,184 128,384 309,499 338,151 464,-422 667,-586 137,72 60,-3 142,131l83 173c314,-207 -85,-531 -361,-568 -95,208 -213,536 -404,628z"/>
   <path class="fil0" d="M47135 4487c248,43 196,-245 485,-386 117,152 129,391 356,442 327,73 397,-166 501,-316 244,39 411,311 642,156 -22,-199 -76,-122 -274,-207 -227,-97 -115,-147 -342,-202 -155,23 -376,783 -708,69 -61,-132 -89,-171 -238,-213 -126,96 -424,442 -422,657z"/>
   <path class="fil0" d="M51022 5328c167,70 368,-234 633,-333 106,65 24,12 104,89 77,74 114,144 259,151 293,13 109,3 181,-56 65,-161 -70,-108 -210,-185 -116,-64 -146,-155 -289,-247 -107,27 -652,367 -690,468 -66,176 -2,84 12,113z"/>
  </g>
  <g id="_1647770216">
   <path class="fil0" d="M16275 48287c179,33 311,101 495,175l442 260c-119,294 -659,769 -972,908 -190,84 -204,97 -240,-135 -75,-485 196,-863 275,-1208zm2413 -1872c-93,-173 -68,-223 -192,-289 -167,137 -25,167 27,371 37,141 36,95 -8,206 -47,118 -112,150 -168,184 -30,-76 -64,-172 -99,-263 -66,-171 -33,-168 -157,-225 -204,316 402,546 -45,1069l-42 -55c-173,-305 -68,-504 -268,-609 -290,330 547,827 -57,1202 -70,-174 -140,-592 -263,-712 -214,67 -84,114 2,392 81,258 80,313 182,547l-217 278c-4,-3 -19,-29 -25,-19l-943 -432c222,-841 1841,-3427 2387,-4342 128,-214 185,-435 370,-625 178,40 1016,437 1155,541 -100,407 -526,1132 -731,1457 -168,267 -733,1168 -908,1324zm606 -3530c98,-243 262,-443 351,-677 504,29 455,266 1017,603 -56,192 -134,399 -200,586 -394,-52 -879,-357 -1168,-512zm-2238 118c-1,-283 211,-551 343,-736 175,-246 272,-395 627,-495 -38,482 -575,1197 -970,1231zm4862 -2580c-7,10 -16,23 -21,30 -4,7 -15,21 -21,29l-174 329c-46,182 33,145 156,196 -192,105 -108,-131 -263,92 -41,59 -48,205 -2,298 -119,7 -13,-85 -112,46l-238 529c-132,281 -118,435 -307,625 -3,4 -12,14 -16,18l-27 29c-155,116 -766,-386 -1017,-579 -7,-6 -24,-9 -29,-26 -5,-17 -19,-17 -28,-26 83,-174 151,-204 220,-386 65,-168 94,-262 170,-419 85,-176 137,-217 181,-396 94,-386 283,-578 545,-1039 213,-374 251,-584 443,-701 109,57 98,60 216,113l343 210c68,41 91,52 160,96 -25,499 -469,560 -67,1045 3,4 13,13 15,16 52,67 58,-35 25,96 -8,-7 -17,-18 -21,-22l-131 -203zm-6168 7274c-158,-11 -376,-68 -483,-157 -19,-18 -95,18 -74,-229 102,-1218 197,-912 331,-1646l339 -1232c181,-428 504,-1262 832,-1572 41,39 300,584 663,535 561,-75 873,-919 1068,-1365 179,-407 -262,-454 -650,-415 -8,-8 -18,-36 -23,-27 -4,7 -34,-35 -53,-43 -81,-37 -20,-14 -106,-28 -389,-60 -936,602 -1127,849l-680 1074c-76,149 -143,236 -209,372l-335 839c-85,296 -220,569 -286,877 -75,352 -424,1930 -77,2124l326 120c152,49 309,108 440,161 -27,330 -136,379 -164,741 -23,289 6,515 106,750 202,471 431,698 1062,636 176,-53 391,-438 591,-616 484,-431 1208,-1670 1528,-2204 88,-148 131,-208 221,-361l655 -929c48,-52 92,-89 140,-168l353 -548c183,-260 744,-1088 827,-1336 30,-90 32,-146 72,-245l262 -678c80,-165 109,-265 195,-441 66,-134 95,-286 163,-419 84,-164 139,-209 214,-410l349 -912c128,-362 131,-594 291,-929l591 -1303c349,-717 155,-494 342,-918 72,-164 102,-316 148,-494 -35,-47 -16,-35 -61,-81 -82,-84 -170,-106 -324,-113 -242,-11 -699,548 -940,766 -599,540 -415,557 -937,829 -261,135 -1389,2021 -1686,2401 -330,421 -1286,1996 -1600,2538l-1086 1843c-459,795 -616,1124 -974,1950l-210 385c-5,7 -16,20 -24,29z"/>
   <path class="fil0" d="M19028 45015c114,-203 35,-96 -44,-342 -57,-178 -40,-263 -172,-357 -38,40 -83,58 -78,168 0,12 101,479 294,531z"/>
   <path class="fil0" d="M19352 44931c25,-51 10,-667 -180,-806 -98,128 -27,244 72,612 1,2 28,101 30,105 63,138 6,41 78,89z"/>
  </g>
  <g id="_1647770912">
   <path class="fil0" d="M3732 61368c-90,-551 -113,-845 -370,-1433 -234,-537 -494,-853 -809,-1261 -516,-669 -816,-514 -821,-1262 -4,-623 348,-1157 681,-1404l592 -449 1142 -435c1492,-413 644,-175 2062,-326 372,-39 671,-3 1025,-15 593,-19 191,-250 768,-246 329,2 663,-14 995,-14 192,0 327,32 493,33 157,1 268,-51 444,-22 173,29 48,40 196,57 270,32 688,-88 911,829 120,489 46,1435 -72,1926 -130,541 -757,1443 -1322,1801 -1290,818 -1672,609 -3398,737 -672,50 -1162,170 -1553,524 -528,478 -701,1045 -878,1179l-86 -219zm165 1246c239,-497 307,-997 541,-1248 131,-141 163,-221 274,-358 138,-171 477,-474 653,-566 365,-189 1756,-173 2238,-192 748,-28 1127,198 2072,-183l576 -322c15,-11 46,-36 77,-59 11,-8 41,-31 52,-38 433,-291 354,-182 687,-612 794,-1029 330,-477 660,-1141 72,-146 102,-295 144,-479 32,-141 29,-381 87,-510 58,-130 119,25 61,-500 -34,-307 35,-893 -139,-1070 -78,-79 -57,-23 -142,-128 -276,-340 -371,-311 -664,-548l-152 -165c-85,-106 -272,-184 -405,-219 -1835,-487 -3750,-413 -5589,-208 -1058,118 -2476,733 -3119,1649 -346,494 -457,1290 -353,2049 48,352 247,562 400,799 552,856 1155,175 1601,3267 55,382 17,219 144,478 106,220 -3,321 296,304z"/>
   <path class="fil0" d="M3669 57939c-45,405 832,443 1146,244 124,-79 376,-306 511,-352 280,-94 381,105 649,163 445,97 1250,-74 1535,-92 426,-27 1109,343 1286,-108 -11,-4 -1178,-132 -1358,-161 -351,-57 -1011,82 -1388,133 -576,79 -525,-439 -1223,-62 -202,108 -335,201 -565,247 -597,118 -447,59 -593,-12z"/>
   <path class="fil0" d="M8590 56318c47,-127 -54,118 -21,-111 14,-95 163,-378 116,-486 -45,-106 -151,23 -228,69 -474,288 -738,180 -1174,187 -261,4 -565,62 -812,89 -435,48 -520,-121 -841,-73 -263,39 -448,248 -648,171 -34,-13 -745,-522 -1195,128l132 109c397,-193 529,-489 955,-136 422,348 638,23 1078,-12 205,-16 367,87 610,88 239,2 473,-18 723,-16 398,3 980,80 1305,-7z"/>
   <path class="fil0" d="M2250 57578c176,-49 161,-93 208,-301 228,-993 700,-845 508,-1044 -218,-225 -761,800 -716,1345z"/>
   <path class="fil0" d="M2826 57498c47,-186 -17,-204 115,-464 80,-159 154,-225 227,-380 -69,-61 -26,-27 -111,-84 -148,95 -410,701 -425,777 -32,168 36,165 194,151z"/>
   <path class="fil0" d="M3142 57579c110,-63 273,-445 225,-560 -122,36 -140,105 -199,237 -57,129 -104,200 -26,323z"/>
  </g>
  <g id="_1647771368">
   <path class="fil0" d="M7698 48912c-182,69 -326,151 -507,218 -170,63 -440,11 -672,7 -501,-11 -942,-45 -1441,-32 -498,12 -945,-52 -1441,-65 -501,-13 -953,-12 -1453,-36 10,-776 103,-820 130,-1202 700,72 469,115 1369,141l2660 367c377,72 1027,111 1419,123l-64 479zm-5192 -2317c816,-28 1938,204 2761,307l1979 323c263,56 427,92 735,91 1,153 2,341 -35,489 -40,161 -81,210 -99,401l-2720 -335c-216,-33 -457,-56 -680,-84 -252,-31 -389,-84 -652,-111 -244,-25 -497,-12 -745,-31 -202,-15 -441,-68 -658,-103 -22,-194 37,-231 65,-440 27,-203 42,-280 49,-507zm-9 -3884c1217,331 550,106 1293,174 540,50 961,105 1502,174 706,90 2525,155 3243,98 -20,357 0,746 -45,1095 -41,312 -89,598 -141,933 -51,329 -65,637 -126,952 -62,327 -129,631 -166,960 -478,-25 -2625,-465 -3347,-559 -288,-37 -453,-27 -731,-89 -805,-183 -956,26 -1403,-129l-18 -79c-16,-273 149,-947 92,-1665 -24,-296 -8,-684 -11,-989 -1,-184 -39,-277 -53,-449 -23,-257 -34,-230 -89,-427zm6634 -4084c125,-175 200,-711 252,-1000 140,9 271,6 396,87 391,251 -8,1538 -87,1613l-155 50c-51,9 -105,4 -160,12 -179,24 -148,-11 -188,148l437 48c-161,511 -326,601 -431,920l-444 -66c-6,265 114,182 334,269 -256,665 -503,1021 -618,1853l-1516 49 454 -1362c20,-262 36,-317 102,-537 84,-282 161,-673 206,-1043 46,-386 112,-104 94,-852 -14,-587 159,-340 616,-843 191,-211 378,-339 780,-355 -25,491 -229,789 -72,1009zm-3708 -3301c613,-263 1006,660 1093,1061 48,221 146,405 184,628 -130,146 -447,376 -413,546 5,1 17,136 211,-114 183,-237 68,-158 276,-226 346,1212 -268,3837 -305,5208l198 124c-11,6 -28,2 -34,16 -22,48 -296,7 -341,4l-1440 -64c-584,-65 -1159,-124 -1751,-182 -28,-465 -97,-839 -128,-1326 182,48 200,69 361,144 193,89 222,99 308,-78l-350 -143c-125,-62 -228,-118 -316,-185l70 -347c22,-196 -10,-400 17,-579 14,-86 37,-107 42,-180 13,-207 -85,-291 160,-270l417 177c199,-235 181,-271 -555,-397 -31,-747 312,-2285 691,-2658 144,121 500,517 630,562 54,-82 68,-108 116,-167l-67 -190c-194,-32 -164,-34 -293,-152l-232 -244c112,-318 717,-711 1032,-848 404,-177 115,586 389,826 167,-148 -9,-559 -4,-790l34 -156zm-374 -450c-1375,264 -1209,671 -1666,772 -57,-153 -90,-168 -189,-308 -247,-349 -327,-196 -317,-83 14,163 269,286 408,587 -105,227 -270,415 -422,576 -276,290 -574,2037 -557,2556 -337,-18 -911,-152 -990,-140 -40,236 128,205 383,244 184,29 399,70 599,82l80 1416c-209,-13 -539,-166 -891,-36 -150,56 -141,37 -134,196 475,-51 508,-127 1034,1 33,635 161,1053 229,1606l-712 -48c33,101 75,133 132,211 -26,1167 -96,2463 -265,3575 -46,305 -32,567 -78,867 -50,315 -128,473 -157,780 -58,604 -169,942 33,1217l147 212c24,38 10,29 55,82 165,193 349,191 634,306 245,99 448,30 736,33 275,4 530,90 761,70 683,-58 3434,120 3617,62 274,-86 167,-24 395,-27 485,-8 480,-21 597,-808 78,-522 238,-151 356,-1552l164 -809c47,-659 384,-2396 413,-2972 10,-210 -38,-312 41,-451 -34,-24 -64,-38 -77,-48 -137,-105 -33,-10 -101,-97l254 -2c-117,-285 -453,-185 -702,-348 2,-375 528,-804 670,-1127 92,-207 72,-267 232,-433 241,41 848,432 1030,552 46,-65 93,-141 129,-208 -188,-119 -810,-371 -1029,-534 44,-176 186,-362 248,-564 68,-221 105,-436 168,-658 134,-106 191,-83 250,-265 -77,-23 -20,-3 -57,-2l-80 -3c86,-425 154,-890 -34,-1303 -92,-204 -151,-302 -341,-420 -130,-81 -440,-180 -620,-197l52 -843c-253,-13 -125,195 -213,778 -491,-36 -815,-67 -1206,328 -123,124 -140,177 -290,270 -140,-346 -82,-519 -111,-655 -117,-536 -367,-606 16,-813l745 -342c14,-57 40,-157 40,-172 -55,-45 71,-163 -256,56l-851 417c-95,-291 -362,-763 -542,-997 -230,-299 -415,-362 -698,-423 -209,-46 -207,-40 -85,-129l-727 -33c-178,-253 -106,-447 -311,-558 -231,107 -43,142 61,556z"/>
   <path class="fil0" d="M7201 46286l201 -49c5,-271 -63,-302 14,-665 36,-172 128,-439 132,-625 -236,-6 -189,21 -293,538 -54,265 -75,510 -54,801z"/>
   <path class="fil0" d="M3691 38050c137,97 283,131 420,247 150,127 202,293 408,141 -55,-140 -791,-860 -828,-388z"/>
   <path class="fil0" d="M5358 39250c171,-83 315,-207 523,-311 478,-241 524,-87 599,-303 -239,-153 -573,128 -927,343 -165,101 -211,83 -195,271z"/>
   <path class="fil0" d="M8338 42163c0,-53 -240,-922 -288,-986 -267,17 -89,234 -26,513 45,202 113,465 314,473z"/>
   <path class="fil0" d="M4684 41295c20,-99 -136,-914 -191,-1027 -118,43 -161,-58 -63,510 44,255 55,417 254,517z"/>
   <path class="fil0" d="M7825 46272l179 -1082c-192,48 -218,240 -247,433 -32,218 -53,542 68,649z"/>
   <path class="fil0" d="M7973 40147c236,-146 683,-690 666,-785 0,0 12,-192 -213,100 -145,187 -514,549 -453,685z"/>
   <path class="fil0" d="M5381 42071c119,-62 649,-772 681,-909 -212,11 -124,16 -231,162 -58,80 -117,142 -181,224 -73,96 -296,368 -269,523z"/>
   <path class="fil0" d="M5371 40392c108,126 148,19 336,-52 227,-86 359,26 456,-173 -297,-141 -641,74 -792,225z"/>
   <path class="fil0" d="M3974 44199c126,90 241,50 249,-157 -193,-5 -224,-30 -249,157z"/>
   <path class="fil0" d="M3212 43994l57 121c88,-37 13,31 108,-60 68,-65 33,-19 69,-106 -121,-142 -159,-122 -234,45z"/>
   <path class="fil0" d="M4974 44187l232 -44c-39,-145 -50,-164 -195,-171 -45,73 -64,97 -37,215z"/>
  </g>
  <g id="_1647774272">
   <path class="fil0" d="M38507 6994c1,404 -321,476 -784,912 -286,269 -622,557 -886,821 -212,-134 -387,-490 -608,-634l83 -98c7,-8 18,-22 26,-30 420,-507 473,-373 811,-689 257,-241 600,-710 950,-828 97,174 116,113 192,321 -263,171 -983,868 -1257,1143 -105,105 -430,293 -382,414 98,250 883,-669 1298,-998 95,-76 148,-119 238,-189 169,-132 108,-118 319,-145zm-16212 -1141c909,36 837,-347 1439,-796 244,-182 245,-26 1038,-676 656,-538 1138,-630 1808,-927 704,-312 1584,-315 2270,-366 1926,-145 4367,88 5994,765 719,299 319,155 887,456 1032,546 1505,998 2168,1947 -228,163 -797,848 -1322,1255 -218,168 -361,319 -517,377 -122,-239 -206,-342 -390,-464 -48,-32 -49,-29 -94,-68 -752,-644 -2493,-1557 -3462,-1778 -1065,-244 -2707,-531 -3702,-228 -601,182 -895,125 -1712,432 -457,171 -1514,874 -1936,1214 -293,237 -267,293 -521,563 -109,-47 -17,18 -143,-81 -357,-278 -1441,-1367 -1721,-1461 -141,318 817,1048 1180,1410 83,82 143,126 220,210l145 177c75,101 11,8 75,109 -90,269 -124,270 -62,573 410,-40 509,-64 703,-334 716,-999 522,-544 864,-800 562,-421 357,-261 1113,-605 700,-318 1865,-727 2661,-725 451,0 1498,-158 2110,37 427,136 1209,235 1776,483 283,124 484,231 765,357 899,404 1371,729 2007,1372 302,305 382,463 367,766 575,8 281,500 856,58 397,-305 0,184 665,-299 10,-8 22,-17 33,-24l152 -64c223,-106 620,-487 714,-665 181,-345 -69,-266 491,-589 -175,-210 -100,-568 -1285,-1874 -367,-404 -208,-424 -779,-826 -1390,-976 -1332,-1434 -3685,-2033 -751,-191 -1302,-286 -2078,-383 -634,-79 -2807,-219 -3292,-46l-969 264c-478,158 -827,205 -1244,417l-534 264c-629,394 -1809,1203 -2343,1725 -136,134 -303,228 -429,375 -76,89 -274,375 -281,506zm14760 520c-8,-5 64,-218 -382,108l-663 569c-433,381 -137,410 -36,343l476 -494c181,-143 598,-409 605,-526z"/>
   <path class="fil0" d="M32550 9956c321,-163 292,-222 426,-578 76,-203 293,-646 -25,-670 -42,61 -123,462 -183,613 -105,268 -199,298 -218,635zm-572 -242c35,-323 333,-1083 461,-1361 364,27 1525,582 1772,795 295,254 1227,1049 1340,1293 -168,150 -841,491 -1132,856 -124,155 -200,246 -374,334 -175,-154 -244,-387 -415,-564 -211,-217 -529,-579 -764,-733 -108,-71 -170,-112 -262,-219l-241 -236c-111,-67 -248,-126 -385,-165zm1424 -616c-213,109 -15,49 -246,611 -108,262 -214,324 -228,620 386,-68 242,-210 397,-550 105,-230 285,-477 77,-681zm-4216 -1055c-56,60 74,-80 0,0zm-2163 3146c-305,-84 -1139,-846 -1374,-1070 93,-104 179,-176 314,-265 209,-136 243,-229 483,-429 82,-69 54,-52 147,-120 214,-156 139,-98 311,-275 113,-118 208,-142 338,-252 136,-114 159,-148 350,-244 60,-30 1258,-538 1477,-555 53,-4 96,-2 122,-3l226 13c411,94 425,-26 772,-28 732,-2 1378,133 2043,282 -81,273 -128,417 -235,679l-215 484c-8,14 -37,63 -44,73l-50 73c-586,-68 -296,-215 -1547,-148 -373,20 -418,-141 -1282,187 -762,289 -1508,844 -1836,1598zm487 622l35 -259c267,-136 142,-66 328,-264l345 -302c983,-571 1639,-930 2828,-866 577,31 1316,327 1732,727 280,269 653,554 906,974 86,144 151,267 252,378 387,-11 315,-81 506,-288 391,-427 988,-852 1565,-1018 77,178 73,190 300,239 41,-641 -474,-1018 -966,-1505 -1529,-1515 -3423,-2618 -5689,-2397 -584,57 -1584,397 -2036,685l-228 112c-396,172 -534,367 -781,552 -534,399 -1551,965 -1032,1765 184,285 831,882 1128,1055l322 220c151,106 242,187 485,192z"/>
   <path class="fil0" d="M31483 11980c102,859 111,1302 -459,1709 -765,547 -2040,93 -1749,-1149 81,-343 220,-497 490,-652 781,-449 1142,-142 1718,92zm-1222 -725c-1085,260 -1575,1074 -1251,2038 197,587 378,717 776,1032 121,95 244,258 539,369 216,82 532,105 792,37 675,-177 688,-302 1045,-709 122,-140 295,-404 325,-594 36,-236 -46,-185 -93,-324 -140,-417 -141,-514 -416,-973 -204,-340 -239,-230 -471,-439 -339,-305 -744,-558 -1246,-437z"/>
   <path class="fil0" d="M30707 13297c394,35 611,-886 338,-1228 -445,55 115,328 -237,922 -107,181 -117,16 -101,306z"/>
   <path class="fil0" d="M35468 6669c213,181 232,-34 489,-261 122,-109 399,-324 416,-495 -242,-25 -881,675 -905,756z"/>
   <path class="fil0" d="M33495 10709c222,-81 672,-830 532,-1101 -124,74 -88,46 -149,230 -52,159 -61,172 -123,309 -183,405 -222,291 -260,562z"/>
   <path class="fil0" d="M30461 12963c679,-59 116,-1414 113,-488 -1,377 -68,221 -113,488z"/>
   <path class="fil0" d="M35275 6000c249,-29 53,37 322,-220 113,-108 176,-115 202,-304 -277,-5 -447,291 -524,524z"/>
   <path class="fil0" d="M30195 12936c156,-103 197,-165 47,-332 -196,80 -164,173 -47,332z"/>
  </g>
  <g id="_605553592">
   <path class="fil0" d="M54177 33142c11,-9 28,-34 34,-24 6,10 25,-18 34,-24 187,-113 542,-177 762,-169 -5,777 -793,1021 -830,217zm-1297 -869c172,41 115,24 362,210 123,92 192,156 248,307 -442,28 -612,-61 -610,-517zm173 -166l523 -85c223,415 363,301 579,675l-515 69c-240,-409 -453,-357 -587,-659zm726 -66c293,12 668,-190 1099,437 62,90 -6,-31 66,113l-668 91c-130,-270 -276,-335 -379,-446 -126,-136 -56,-26 -118,-195zm1964 -390c150,-94 236,-199 275,45 112,701 -627,786 -959,874 -9,-8 -20,-36 -23,-28 -3,7 -17,-23 -21,-30 -39,-59 -21,-32 -54,-89 -51,-89 -39,-80 -104,-159 -113,-138 -183,-149 -250,-306 146,-64 376,-97 564,-86 151,206 170,240 267,522 122,-176 -89,-406 -135,-613l320 -72c36,156 44,303 155,383l-35 -441zm-3594 -838c239,-113 248,-216 569,-326l-218 589c-6,12 -46,78 -54,87 -73,87 18,4 -89,69 -217,-89 -212,-145 -208,-419zm3451 403c10,-240 106,-404 208,-609 216,-435 100,-425 393,-443 -30,391 -249,639 -256,786 203,-75 288,-556 419,-741 707,284 -355,946 -764,1007zm-2968 -226c360,-637 234,-650 672,-687 -107,395 -381,809 -482,1158l-300 -165 110 -306zm838 -740c238,11 338,-23 511,-79 -24,269 -236,842 -382,1105 -28,51 -44,79 -76,142l-67 131c-3,-8 -11,23 -19,36l-509 -134c9,-118 426,-744 542,-1201zm1994 1064c-871,409 -319,-300 -17,-1111 56,-151 13,-150 155,-171 476,-73 -21,766 -79,919 -91,240 -8,270 -59,363zm-1283 233c255,-209 418,-1088 651,-1459l476 9c-50,428 -425,920 -471,1394 -765,76 -274,146 -1270,119 210,-377 593,-1414 636,-1478l413 -25c-33,200 -167,579 -245,767 -89,216 -278,522 -190,673zm-353 -6164c-297,95 -522,-91 -403,-396l269 -585c264,239 290,719 134,981zm129 -1291c388,-583 1341,-565 1526,-16 167,496 -258,1380 -374,1862l-398 1894c-72,882 -18,1212 180,1998l-1374 157c-136,-252 -304,-472 -426,-734 -116,-249 -170,-570 -280,-848 -72,-184 -76,-281 -96,-486l-335 -1385c-42,-169 -36,-339 -80,-503 -161,-606 -342,-2049 427,-2214 429,-91 633,105 806,320 -48,244 -366,656 -344,890 38,396 607,937 997,490 345,-396 -209,-1320 -229,-1425zm-1210 6051c-108,-357 -315,-544 -519,-837 -114,-164 -431,-417 -620,-729 -588,-968 -1244,-1237 -1112,-3271 67,-1027 205,-936 384,-1427 516,-1410 908,-1733 2222,-2291 1005,-427 2693,-202 3506,549 469,433 1049,1584 1012,2536 -64,1678 -1054,2419 -1712,3641 -141,263 -246,781 -197,1133 10,77 31,134 35,174l-10 131 -635 69c-84,-422 -160,-707 -147,-1183 6,-217 35,-340 20,-553 -21,-294 23,-293 124,-482 102,-192 72,-361 110,-558 33,-173 97,-315 142,-488 93,-354 164,-635 305,-963 538,-1249 460,-2117 -1044,-2107 -553,3 -524,213 -858,393 -30,5 -1207,-696 -1748,217 -246,416 -136,1729 25,2175 218,606 244,1353 476,1997 115,319 239,603 356,908 120,314 335,559 416,824l-531 142zm-250 105c-50,84 -3,38 -90,114 -26,23 -72,50 -103,74 -696,541 -122,1314 487,1420 -89,516 -203,610 82,1088 215,359 576,263 1015,199 26,43 265,879 901,805 389,-46 706,-588 567,-1085l513 -99c180,-276 608,-371 417,-997l-203 -348 370 -214c734,-542 162,-1391 -503,-1468 50,-175 145,-614 223,-748 26,-44 44,-42 91,-127 321,-585 407,-461 767,-997l443 -543c36,-50 59,-83 98,-128 6,-7 15,-17 22,-24 136,-152 212,-196 310,-409 279,-608 488,-1796 400,-2497l-350 -1092 -588 -892c-391,-363 96,-39 -525,-464 -112,-77 -33,-41 -118,-109 -78,-63 -78,-47 -176,-93 -125,-58 -191,-111 -320,-171l-721 -261c-733,-221 -1410,-259 -2184,-130 -159,27 -282,12 -452,50 -788,177 -1869,866 -2259,1691 -147,310 -36,-78 -175,219 -205,437 -452,1436 -517,1956 -139,1111 139,2298 722,3182 221,335 644,796 942,1038 546,442 596,724 914,1060z"/>
   <path class="fil0" d="M54359 22360c146,93 592,149 793,241 379,173 369,439 537,484 136,-174 120,-215 -35,-352 -106,-95 -231,-245 -329,-300 -80,-44 -853,-267 -937,-271l-29 198z"/>
   <path class="fil0" d="M55534 22246c133,228 274,51 595,370l460 523c125,-52 73,-31 155,-128 -133,-342 -655,-810 -1100,-895 -66,60 -75,41 -110,130z"/>
   <path class="fil0" d="M56950 24720c158,-69 221,-170 180,-359 -188,51 -166,129 -180,359z"/>
   <path class="fil0" d="M56886 23807l3 -192 -184 -6c-28,183 9,219 181,198z"/>
  </g>
  <g id="_605553904">
   <path class="fil0" d="M47269 48362c339,-37 483,-104 781,-212 267,-97 506,-123 761,-232 239,-102 385,-240 683,-302 292,-62 655,-52 951,-6 590,91 1224,149 1821,155 763,7 797,145 1183,309 256,108 190,2 195,363 -474,-133 -870,-304 -1197,-323 -231,-14 -259,-62 -420,-85 -731,-106 -2888,75 -3554,368 -191,84 -531,260 -684,313 -379,131 -233,38 -754,257 74,-189 97,-354 234,-605zm-260 805c190,-142 464,-236 727,-297 652,-152 672,-400 1557,-514 322,-41 577,-81 925,-117 631,-65 1342,-126 1933,7 445,99 108,-100 851,186 139,53 277,69 424,117 222,73 211,104 224,382 -731,-241 -1544,-574 -2464,-558 -478,9 -464,65 -829,155 -240,60 -624,81 -883,105 -351,33 -511,118 -813,182 -635,136 -906,372 -1652,352zm6956 -1191c506,408 995,-672 2983,-749 1285,-49 958,49 1881,157 450,52 844,68 1239,287 224,124 193,87 222,351 -237,-82 -443,-219 -709,-308 -268,-90 -600,-87 -922,-112 -309,-23 -547,-92 -854,-125 -779,-86 -1129,-109 -1845,80l-754 281c-131,61 -161,120 -296,198 -303,178 -775,491 -1003,578 13,-328 70,-471 71,-553 1,-68 -77,54 -13,-85zm-6985 133c-157,-152 -54,150 -63,-70 -6,-146 -26,-20 37,-100 39,62 119,-79 26,170zm6852 883c52,-280 361,-357 593,-502 565,-354 826,-508 1484,-768 750,-296 1783,-82 2507,20 501,70 939,-21 1465,252 281,146 596,209 460,600 -10,4 -26,-3 -30,8l-94 5c-82,-11 -76,-27 -172,-59l-6 -346c-144,99 -71,106 -208,213 -250,-100 -323,-202 -681,-310 -249,-75 -553,-166 -806,-232 -790,-207 -1854,-144 -2540,289l-663 375c-427,288 -335,283 -992,502 -109,37 -161,68 -279,-15l-38 -32zm7005 -1419c-39,-19 -21,-5 -62,-65 -175,-252 -153,-214 -153,-483 66,-20 14,4 102,-23l90 -36c3,-288 -66,-384 -90,-630 -183,-1895 -313,-2503 -692,-4343 -134,-652 -316,-1891 -472,-2412 -112,-374 -401,-1255 -579,-1582 -161,-299 -115,-281 -178,-589 -89,-437 -333,-620 -429,-1018 -95,-388 -414,-590 -798,-622 -525,-45 -695,-144 -1285,-41 -794,139 -990,177 -1631,574 -945,587 -1243,798 -1902,1697 -103,141 -190,270 -295,426 -60,91 -81,109 -145,212 -93,147 -77,127 -186,216 -224,-104 -504,-251 -732,-382 -1189,-685 -2378,-879 -3771,-599 -289,58 -1494,487 -1712,627l-555 435c-66,177 3,69 22,98l-52 57c-1,1 -135,-100 -182,40l-98 250c-412,867 -125,730 14,1913 150,1265 207,1646 222,3016 3,270 -6,541 -4,811 3,606 256,1504 426,2012 162,480 196,836 313,1310 78,319 226,1258 576,1092 329,-155 -160,25 92,-46 74,-21 187,-12 261,-16 167,-10 277,-73 450,-86 810,-61 1122,-143 1877,-372 335,-101 589,-110 958,-174 665,-116 1194,-333 1911,-142 361,96 1039,197 1320,350 155,85 214,171 349,239 206,103 649,-45 839,-113 138,-49 292,-84 411,-128 192,-71 198,-130 361,-228 1388,-833 1907,-951 3479,-578 1117,265 843,479 1154,529 78,12 369,-53 517,-67 153,-336 60,-456 -36,-971 88,-49 74,-53 181,-14 -65,-279 -47,-27 114,-144zm-10670 -220c798,-147 1916,-374 2820,107 206,110 539,334 622,491 -225,-6 -137,-66 -341,-139 -644,-231 -1747,-219 -2194,-284 -299,-43 -764,-45 -907,-175zm4905 79c311,-180 706,-395 1124,-507 1051,-280 543,-133 1427,-162 658,-22 1747,244 2358,545 171,84 183,59 209,238 -600,-268 -1881,-434 -2528,-469 -1603,-88 -2405,412 -2406,412 -357,70 -59,57 -184,-57zm-9332 -3206c106,169 398,2037 496,2425 45,176 103,376 190,529 131,230 103,294 184,538 52,157 149,396 163,566 13,160 -128,407 -225,523 -130,-144 -96,-366 -131,-551 -78,-412 -322,-1149 -358,-1653 -29,-405 -139,-735 -196,-1170 -47,-359 -141,-839 -123,-1207zm-193 -4045c9,10 22,13 26,34 7,34 63,18 133,353 31,153 62,277 106,430 89,302 157,529 219,862 104,555 225,1261 276,1848 125,1444 146,1939 413,3328 30,155 95,301 -1,454l-259 -806c-148,-494 -116,-273 -205,-882 -46,-316 -127,-521 -186,-837 -63,-335 -84,-596 -149,-939 -125,-647 -63,-1325 -151,-1966 -74,-542 -284,-1403 -222,-1879zm-247 544c-58,-68 -24,-1 -87,-136 -235,-507 -223,-508 2,-656l85 792zm30 -955c-88,-113 -87,-133 -43,-279 50,36 108,32 118,145 10,124 -72,131 -75,134zm8165 7612c-424,-173 -667,-411 -1430,-526 -1215,-184 -2233,-33 -3334,495l-986 500c-31,19 -117,73 -150,84 -326,108 -110,138 -356,-1073 -85,-420 -47,-819 -75,-1246 -40,-616 -371,-2779 -501,-3451 -143,-744 -595,-2350 -1068,-2843 9,-10 28,-32 35,-21l339 -164c181,-89 193,-25 619,-241 86,-44 96,-42 192,-81 178,-71 226,-99 441,-142 324,-65 617,-159 876,-251 180,-65 759,-143 971,-140 670,10 1165,-58 1943,300 138,63 253,136 355,188 576,288 798,281 874,843 179,1306 347,2650 550,3954l494 2884c59,267 194,702 211,931zm6754 -317c-283,-22 -745,-343 -1567,-521 -1366,-294 -2242,-242 -3443,201 -658,243 -963,714 -1261,861l-927 -5400c-64,-802 -251,-1938 -491,-2703 -21,-65 -32,-230 -34,-241 -20,-134 -38,-12 -89,-221 239,-194 311,7 734,-622 139,-207 582,-493 675,-634 236,-355 194,-108 710,-597 161,-154 222,-154 448,-241 376,-146 1537,-1032 2939,-708 129,30 240,53 294,397 38,245 -35,62 -26,227l696 2026c111,359 140,771 219,1136l451 2289c431,1555 340,2252 576,3533 60,324 129,855 96,1218z"/>
   <path class="fil0" d="M47178 40383c287,9 258,-114 459,-300 825,-757 2088,-924 3156,-609 621,182 617,420 746,478 459,201 63,-976 -2378,-767 -570,49 -1290,379 -1640,739 -131,134 -328,222 -343,459z"/>
   <path class="fil0" d="M54471 46201c352,-69 415,-590 1709,-999 540,-171 1091,-261 1710,-39 281,101 264,148 429,292 77,-18 145,-52 189,-149 -814,-847 -2396,-439 -3270,130l-632 491c-101,90 -128,123 -135,274z"/>
   <path class="fil0" d="M53635 39429c285,8 250,-243 785,-801 576,-602 1269,-915 2090,-1159 969,-288 1069,129 1270,-210 -262,-190 -1045,-44 -1337,60 -1101,395 -1791,650 -2510,1584 -130,168 -293,288 -298,526z"/>
   <path class="fil0" d="M49682 40673c-392,129 -1343,144 -1921,803 -194,221 -26,242 160,115 652,-445 463,-444 1395,-644 796,-172 244,-152 1194,-62 250,23 354,34 563,108 129,45 410,193 468,178 234,-59 -82,-251 -167,-290 -325,-150 -1391,-307 -1692,-208z"/>
   <path class="fil0" d="M53983 40433c259,1 169,-51 592,-570 354,-434 588,-587 1088,-938l1088 -489c270,-94 736,-155 1041,-181 243,-20 209,25 242,-170 -432,-159 -2128,499 -2466,704 -416,252 -1532,1156 -1585,1644z"/>
   <path class="fil0" d="M58596 41864c-59,-240 -247,-154 -492,-189 -247,-36 -359,-60 -647,-32 -891,85 -1826,555 -2449,1173 -75,75 -335,298 -362,404 -95,378 443,-267 638,-443 463,-418 1323,-879 1981,-941 368,-34 1205,76 1331,28z"/>
   <path class="fil0" d="M54294 41692c90,42 55,43 186,-31 76,-43 143,-101 203,-159 509,-498 446,-516 1269,-896 899,-416 1140,-365 2036,-480 191,-25 173,-18 221,-151 -162,-79 -1535,139 -1817,267 -878,398 -1019,320 -1795,1085 -88,87 -337,264 -303,365z"/>
   <path class="fil0" d="M48326 46273c200,104 251,-180 750,-382 655,-263 1501,-265 2239,-186 484,52 678,464 901,225 -133,-397 -1680,-492 -2103,-438 -494,63 -1556,207 -1787,781z"/>
   <path class="fil0" d="M49299 42275c-35,376 674,-153 1732,337 192,89 462,162 651,88 -11,-299 43,-117 -476,-249 -551,-139 -1206,-389 -1907,-176z"/>
   <path class="fil0" d="M47716 44753c0,1 52,87 210,-6 224,-130 -39,-58 632,-370 166,-77 311,-134 507,-171 302,-58 387,44 411,-262 -546,-17 -993,269 -1257,372 -241,94 -515,365 -503,437z"/>
   <path class="fil0" d="M54968 44563c198,-89 185,-319 786,-556 163,-64 195,-34 210,-240 -185,-61 -237,29 -631,279 -152,96 -458,302 -365,517z"/>
   <path class="fil0" d="M57826 43601c-86,84 -175,31 243,215 116,50 313,194 375,134 161,-154 -512,-451 -618,-349z"/>
   <path class="fil0" d="M48430 42825l55 21c29,-3 500,-170 452,-334l-144 -10c-132,42 -410,167 -363,323z"/>
   <path class="fil0" d="M50198 44082c-38,73 -128,177 222,169 543,-13 214,-328 -222,-169z"/>
   <path class="fil0" d="M51394 44309c72,162 18,79 194,132 163,50 108,85 312,99 -30,-329 -441,-346 -506,-231z"/>
   <path class="fil0" d="M47667 43273c151,-50 167,-75 252,-160 43,-43 183,-149 120,-209 -98,-93 -351,182 -372,369z"/>
   <path class="fil0" d="M56704 43679c47,57 40,102 164,48 80,-35 102,-62 107,-168 -144,-4 -211,34 -271,120z"/>
  </g>
  <g id="_605521000">
   <path class="fil0" d="M38542 34546c-652,3 -920,-554 -421,-827 570,-313 835,145 421,827zm-4061 -4063c592,530 454,317 636,858 490,1462 2769,1611 4048,1930 1001,250 2211,265 3214,471 301,62 283,45 646,14l132 -176c61,-56 37,-18 78,-59 75,-74 38,14 79,-138 21,-78 18,-114 30,-192 75,-497 145,-1105 443,-1368 90,-80 160,-125 256,-199 118,-90 174,-154 319,-209 -95,590 -349,2428 -793,2891 -141,147 -157,185 -351,283 -808,404 -272,116 -735,479 -666,522 -1852,71 -2541,-42 -204,-33 -903,-78 -1059,-243 510,-360 48,-1351 -485,-1372 -380,-15 -911,494 -605,922 93,130 232,248 234,374 -303,86 -2050,-352 -2460,-443 -457,-102 -684,-378 -918,-570l-487 -600c-33,-93 -41,-238 -35,-346 263,213 591,815 873,1003 -94,-476 -1071,-1137 -856,-1703 44,-116 30,-78 91,-146 122,241 719,1050 921,1165 6,-10 134,9 -36,-246 -62,-92 -87,-107 -169,-195 -249,-267 -404,-540 -601,-842 -147,-227 -186,-292 -49,-500 456,378 548,931 810,988 108,-183 -48,-245 -160,-412 -377,-564 -655,-759 -579,-1110 5,-23 27,-111 39,-140 57,-145 4,-51 70,-127zm9165 1234c24,-586 -46,-613 686,-1151l156 -100c-99,324 26,546 -261,805 -157,143 -396,363 -581,446zm-8665 -1006c-86,-69 -156,-126 -251,-203 -103,-84 -116,-140 -230,-222l12 -403c182,111 480,634 469,828zm8743 102c2,-519 -8,-556 280,-803 143,-123 395,-382 602,-423 -31,410 -50,556 -266,761 -106,101 -182,142 -300,242 -209,177 -85,146 -316,223zm-8757 -541c-307,-596 -482,-394 -268,-1457 117,90 323,526 369,638 46,113 36,651 -101,819zm685 -3066c-106,-100 -112,-186 -180,-327 -66,-137 -94,-201 -154,-340 -163,-375 -227,-274 -110,-763l905 -4965c8,-1232 -422,-1169 -22,-1503 284,-238 329,-199 730,-182 336,15 575,9 902,45 325,37 496,120 854,143 1028,64 1615,165 2608,322 148,24 293,26 456,39 206,17 217,57 395,94l2670 303c755,102 818,359 870,1140 49,736 -26,2871 -155,3584 -134,740 -231,1827 -404,2528 -36,147 -56,268 -83,414 -175,955 -160,545 -826,1163l-265 200 81 -238c15,-80 30,-178 38,-236l195 -1515c99,-655 201,-1299 290,-1956 104,-768 240,-1248 335,-1963 48,-368 35,-653 -10,-1030 -81,-679 -66,-856 -566,-1131 -478,-264 -600,-320 -1202,-410 -686,-102 -1388,-94 -2033,-219 -298,-58 -737,-114 -1034,-144l-2914 -420 -334 1860c-94,607 -263,1339 -308,1851l-185 1479 -544 2177zm8147 2738c8,-545 -6,-548 296,-831 161,-152 415,-401 670,-445 -83,506 -51,534 -356,807 -182,163 -383,359 -610,469zm-8766 -915c-80,-141 -240,-446 -244,-567l187 -910c29,32 32,29 62,84 31,58 18,37 41,102 297,847 355,306 161,1243l-84 214 -123 -166zm219 -1299c-353,-871 -210,-653 -158,-1087 2,-18 11,-22 17,-32 74,86 319,540 375,666 124,281 57,519 -38,789l-130 -180c-20,-40 -41,-95 -66,-156zm5326 -6856c801,177 3117,311 3269,422 432,514 33,2400 -57,3090l-566 4204c-159,1002 -156,2265 -376,3549 -104,612 -36,1016 -577,1208 -211,-40 -170,-79 -378,-134l-1287 -198c-838,-54 -4497,-724 -4710,-1201 -59,-133 -114,-713 -103,-852 123,-1610 180,-1078 486,-2455 116,-519 274,-1073 394,-1581 66,-275 142,-530 194,-803 48,-249 64,-570 123,-815 84,-49 124,0 124,0 -69,-190 -74,80 -89,-268l170 -1607c116,-565 -5,-766 120,-1274 54,-220 -30,-343 -20,-590 16,-399 95,-896 79,-1282 289,5 516,154 773,214 689,160 1019,180 1586,306 271,60 578,9 845,67zm-5002 -1645c-14,592 -101,1099 -233,1624 -66,262 -44,522 -99,796l-455 2340c-91,491 -250,1076 -298,1544l-479 2724c-96,298 -198,1243 -260,1496 -27,113 -85,172 -119,373 -319,1886 -604,2640 957,4074 224,206 934,501 1227,620l3583 602c449,110 627,61 1196,197 452,108 1022,284 1491,271 391,-10 778,-66 1108,-290 109,-74 136,-159 247,-248 668,164 677,-464 934,-915 293,-516 482,-1680 549,-2330 29,-284 108,-601 129,-855 52,-615 180,-1114 218,-1710 38,-605 189,-1096 319,-1631l271 -1658c104,-723 80,-1870 225,-2167 107,-219 221,-2784 78,-3125 -358,-854 -7,-270 -561,-878 -155,-170 -12,-121 -236,-257 -220,-133 -369,-198 -621,-326 -542,-276 -3233,-399 -3415,-445 -241,-61 -572,-108 -861,-126l-1740 -202c-581,-77 -1274,-43 -1824,-119 -401,-55 -879,80 -1087,384 -175,256 2,79 -244,237z"/>
   <path class="fil0" d="M38336 24047l50 163c293,-84 649,-242 908,-352 339,-143 547,-336 1042,-263 -245,518 -1089,1277 -1530,1758 -128,140 -182,107 -177,312 529,3 1085,-700 2267,-821 -141,589 -1076,1437 -1611,2069 -100,118 -196,237 -288,346 -130,153 -233,146 -216,369 259,9 1613,-899 2145,-979 -213,922 -1520,2063 -1400,2628 262,-69 202,-246 427,-700 224,-453 1315,-1579 1166,-2207 -369,-23 -1389,701 -1826,788 219,-413 1224,-1264 1563,-1823l223 -315c86,-145 152,-260 112,-394 -460,-128 -1858,607 -2035,648 69,-177 607,-710 789,-896 189,-193 630,-721 696,-963 -565,-257 -1272,319 -1820,421 239,-639 837,-899 1040,-1124 150,-166 29,-368 -166,-169 -102,105 -21,122 -332,398 -479,426 -850,966 -1027,1106z"/>
   <path class="fil0" d="M42723 21966c181,-80 223,-237 461,-94 266,134 190,743 160,1094 -12,143 -74,135 41,191 309,151 320,-1307 -64,-1513 -131,-70 -309,-133 -435,-41 -16,11 -149,145 -156,156 -76,123 -61,59 -7,207z"/>
   <path class="fil0" d="M39389 34679c107,-23 166,6 246,-425 11,-56 40,-234 42,-281 9,-190 -35,-141 -165,-159 -56,111 -45,266 -84,439 -48,208 -108,310 -39,426z"/>
   <path class="fil0" d="M43170 24182c117,25 59,-6 155,-90 9,-197 25,-262 -133,-291 -100,116 -105,238 -22,381z"/>
   <path class="fil0" d="M43081 22855c88,-68 123,-73 109,-222 -227,-37 -232,111 -109,222z"/>
   <path class="fil0" d="M42890 23371c50,23 43,72 165,-18 -26,-200 -6,-146 -154,-145 -68,116 -66,59 -11,163z"/>
  </g>
  <g id="_605522464">
   <path class="fil0" d="M30353 46633c75,210 287,462 419,621 670,802 766,1098 1293,1949 507,819 733,986 1111,1544 65,96 162,204 243,298 27,30 107,125 129,145 150,137 22,13 132,74l124 114c53,57 80,72 138,127 -31,128 -62,196 -112,344l-159 349c-130,-130 -255,-458 -410,-634 -187,-211 -286,-399 -468,-617 -909,-1095 -982,-1548 -1732,-2589 -150,-208 -301,-417 -484,-595 -356,-345 -119,-249 -512,-563l288 -567zm391 60c201,25 309,84 557,121 2096,312 1669,74 3360,53 1355,-17 2659,136 4026,-35l2048 -83c57,5 264,36 284,36 283,-1 122,-155 409,215 150,194 203,185 357,454 56,98 129,179 194,256 288,343 440,711 633,1034l1332 2007c-412,31 -734,60 -854,-288 -361,198 -50,169 -914,132 -638,-27 -2315,134 -3080,180 -559,35 -1321,55 -1997,94 -336,19 -642,75 -997,80l-2031 89c-332,5 -203,-30 -584,-513 -896,-1134 -1033,-1581 -1743,-2625 -152,-222 -300,-406 -476,-602 -162,-180 -426,-389 -524,-605zm4593 -7795c1557,-77 2979,191 4549,121 386,-18 698,-41 1106,-6 309,26 310,-8 318,292l-279 5004c-44,699 -225,1297 -156,2074 -117,-16 -209,-20 -310,-49 -807,-236 -1277,-39 -2212,-35 -396,2 -910,65 -1350,87 -477,24 -965,18 -1442,2 -991,-32 -1796,-46 -2790,13 -428,26 -943,38 -1366,4 -219,-18 -462,-26 -639,-82 -178,-55 -193,-3 -198,-483 117,-99 153,-106 161,-311 27,-795 169,-681 218,-1271 29,-338 62,-567 120,-875 61,-320 38,-592 72,-919 112,-1048 150,-1722 -46,-2739l-187 -821c335,82 681,138 1086,76 1442,-222 2275,-29 3345,-82zm-5132 6805c0,170 -9,328 4,498l-434 -31c7,-341 49,-666 30,-958 -24,-360 -16,-640 -12,-994 6,-496 47,-1385 121,-1858 48,-310 35,-640 72,-968l200 -1766c17,-211 19,-776 38,-874l160 4 73 229c9,71 10,155 12,237l14 1485c-11,312 13,667 -27,973 -125,958 -118,1692 -260,2707 -191,1360 8,741 9,1316zm359 -7106l-266 -133c-201,200 21,121 -372,209 63,479 -349,3107 -369,3923 -16,697 -117,1354 -98,2073l-6 1435c34,205 100,164 210,298l583 28c-127,145 -397,692 -386,896 220,173 106,-16 299,273l1519 2219c77,121 151,269 238,390 86,120 168,200 261,324l1023 1457c33,61 411,593 583,677 268,129 245,48 328,-165 271,78 -51,67 551,130l943 58c155,27 47,49 269,73 235,25 445,2 678,-4 237,-5 443,2 677,8 218,6 392,-45 629,-49 1012,-15 1601,-31 2627,71 403,40 2067,-44 2544,-122 294,-48 165,-264 1022,-363l-96 -269c-526,-92 -596,8 -1059,113 -189,43 -338,114 -489,127 -1081,89 -2069,133 -3154,53 -1722,-127 -3394,151 -5097,-6 -26,-395 46,-464 76,-776 267,-24 784,19 1150,11 435,-9 754,-43 1215,-37l2432 -120c817,-30 1507,-131 2297,-165 523,-23 23,-99 1170,-92 436,3 781,29 1216,49l45 -128c14,0 134,-6 137,-5 195,20 164,-3 184,679 10,354 -70,427 174,597 53,-90 38,-35 35,-280 -3,-145 -6,-151 -25,-287 -32,-218 -17,-456 -19,-679 112,45 209,85 324,147 58,-113 -30,-14 84,-125 -161,-198 -241,-388 -366,-624l-398 -591c-266,-445 -511,-741 -761,-1222 -124,-241 -239,-379 -386,-602 -64,-97 -126,-171 -215,-281 -185,-227 -377,-622 -648,-836 -246,-194 -367,-245 -514,-528 77,-228 118,-602 163,-865 101,-593 229,-1267 237,-1882 13,-1186 205,-1550 166,-2926 -9,-297 25,-798 -15,-1060 -23,-148 -53,-319 -19,-515l5 -171c-13,-93 -3,-62 52,-145 -168,-96 -302,-286 -418,-346 -147,-76 -3253,-125 -3629,-124 -825,3 -2218,-161 -3019,-119 -1015,54 -1723,-119 -2997,78 -385,59 -670,150 -1013,160 -230,7 -157,27 -312,86z"/>
   <path class="fil0" d="M33749 49712l1002 -101c94,130 179,247 249,372 -183,129 -718,251 -945,298l-306 -569zm1333 -121l1251 -30c104,132 253,321 318,477l-1326 -46c-143,-234 -152,-122 -243,-401zm1548 -104l147 -61c194,-46 1043,-186 1171,-132 153,121 408,524 462,702 -155,-2 -434,-2 -583,13 -705,71 -786,249 -1197,-522zm1608 -90c100,-132 111,-154 519,-197 249,-27 379,-37 651,-36 165,332 463,676 478,859 -156,-17 -323,-57 -513,-63 -181,-6 -307,41 -525,20 -300,-29 -512,-352 -610,-583zm1403 -246l1070 -54c89,240 317,553 502,673 -69,84 4,75 -240,143 -204,56 -609,259 -891,11 -55,-49 -44,-30 -91,-95 -196,-270 -349,-677 -350,-678zm1270 -72l853 -54 469 745 -880 85c-54,-116 -145,-225 -229,-349 -111,-165 -187,-178 -213,-427zm-7666 -380l944 -160c107,333 412,621 470,952l-1024 46c-62,-167 -138,-281 -206,-395 -97,-161 -110,-255 -184,-443zm1220 -157c203,-158 1011,-192 1232,-198l88 160c209,532 277,544 358,720 71,154 31,23 1,83 -89,98 -934,110 -1168,99l-511 -864zm1557 -254l1296 -74 471 813c-226,156 -1010,233 -1282,257l-276 -424c-97,-175 -167,-338 -209,-572zm2025 782c-103,-167 -457,-706 -397,-891l1244 -6c151,170 346,610 393,806 -209,2 -414,42 -619,71 -221,30 -412,4 -621,20zm2017 -1028c147,147 402,652 467,886l-990 49c-74,-153 -140,-295 -214,-422 -126,-216 -108,-109 -195,-400l932 -113zm246 -12c289,-15 602,58 835,-18 123,124 160,247 253,414 95,171 180,251 220,446l-878 7c-8,-10 -19,-23 -25,-30 -5,-7 -17,-21 -24,-30l-381 -789zm-6259 -271c601,32 425,-8 762,-59 155,-23 184,25 343,23 124,-1 178,-28 317,-33 64,122 107,276 115,455 -499,26 -820,115 -1309,152l-228 -538zm3291 -118c87,-64 -5,-27 146,-69 9,-3 148,-21 150,-22l997 -54c62,125 119,254 159,444l-1391 -13 -61 -286zm-1612 66c1289,-53 1355,-259 1459,243l-1312 109c-98,-122 -112,-182 -147,-352zm-2620 899c-52,-147 -198,-337 -298,-467l-254 -332c-80,-125 -13,-9 -79,-152 427,41 861,115 1281,115 113,196 168,234 246,502l-255 87c-548,102 -460,87 -641,247zm7620 -1180c80,145 194,268 241,394l-795 18 -127 -384 681 -28zm-893 38l114 360 -948 113 -150 -420 984 -53zm-7713 27c-17,231 74,189 195,332 48,56 68,106 127,191 91,131 61,53 149,163l1380 2350c314,-29 345,-48 601,-104 140,-31 225,-1 337,-24 84,-18 137,-72 243,-110 112,44 165,90 316,138l72 -174c327,0 607,27 918,38 285,9 671,-12 931,22 416,56 443,-72 824,-55 551,25 1162,-46 1899,17 1014,87 853,-98 1190,-185 235,-61 1037,-57 1208,-172 9,-195 -269,-495 -362,-675l-407 -719c-190,-370 -831,-1075 -921,-1302 169,62 258,188 336,209 -10,-97 -220,-203 -314,-250 -270,-135 -1362,-25 -1655,4 -454,45 -803,6 -1245,6 -412,1 -1601,141 -2382,163 -261,8 -917,14 -1185,61 -1153,200 -1597,-24 -2041,64l-214 12z"/>
   <path class="fil0" d="M32077 41641c226,-2281 -364,-1963 694,-1897 368,23 525,-58 854,-41 1171,59 2358,10 3465,-5 284,-3 594,28 862,40 636,28 1195,-91 1601,-56 304,26 526,52 831,66 -66,449 -71,951 -147,1390 -107,621 53,2288 12,2946 -16,267 -81,1152 -167,1324 -452,103 -1531,-24 -1989,-104 -625,-108 -2026,-1 -3104,-102 -663,-62 -2458,-96 -3097,-78l185 -3483zm8078 4117c6,-11 10,-41 13,-34l48 -136c3,-8 9,-25 12,-32 2,-7 6,-23 12,-32 67,152 -4,124 185,145 153,-432 186,-3011 128,-3700l34 -1942c62,-375 39,-21 143,-266 -315,-409 -605,-305 -1174,-374 -511,-63 -1015,9 -1518,13 -1018,9 -2043,-33 -3060,4 -899,32 -1324,-28 -2222,34 -1077,75 -930,-402 -963,503 -9,245 -5,552 -35,786 -59,474 -58,977 -119,1457 -38,298 -92,2904 -31,3021 101,197 242,204 526,232 240,25 444,93 682,105 952,50 2032,25 3054,118 583,53 392,49 823,-42 162,-35 351,-3 533,-1 954,10 1327,78 2200,145 256,20 434,-23 729,-4z"/>
   <path class="fil0" d="M33531 41427c69,158 71,198 292,159 157,-28 249,-73 358,-148 208,-142 357,-384 625,-439 -112,378 -839,1342 -965,1807 -43,158 81,554 235,642 376,216 1028,-267 1270,-482 307,-271 681,-624 1125,-779 -124,666 -665,742 -315,1436 220,17 204,-29 311,-164 203,-257 622,-572 956,-603 -51,377 -228,485 -48,859 182,376 449,198 753,98l166 241c173,272 594,465 761,345 -172,-268 -527,-200 -656,-546 -158,-425 -365,-338 -816,-301 32,-293 193,-453 160,-774 -310,-282 -356,-189 -804,-164 109,-283 230,-515 219,-826l546 -340 -44 -88c-42,-120 47,-100 -127,-153 -436,-131 -155,44 -260,-224 -517,-20 -78,-121 -433,-82 -187,20 -979,566 -1096,669l-261 184c-331,215 -914,676 -1048,718 290,-739 1073,-1481 1096,-2090l-186 -95c-10,-5 -20,-13 -29,-18 -219,-112 -479,142 -815,415 -171,139 -300,235 -477,378 -414,333 -380,118 -493,365z"/>
   <path class="fil0" d="M32365 43414c166,-116 207,-1665 227,-1943 15,-213 71,-485 -47,-600 -205,78 -162,979 -174,1234 -10,211 -135,1001 -101,1169 40,202 -42,74 95,140z"/>
   <path class="fil0" d="M32590 44307c120,-33 122,60 159,-411 16,-199 38,-341 52,-533 44,-583 191,-854 59,-1041 -123,52 -103,-52 -168,414 -51,372 -261,1328 -102,1571z"/>
   <path class="fil0" d="M32948 43904c-99,119 -112,102 -32,253 241,-47 104,-195 99,-262 0,0 114,-463 -99,-251 -116,115 -12,207 32,260z"/>
   <path class="fil0" d="M32248 43685c36,159 21,125 117,203 90,-116 124,-100 54,-264 -65,-21 84,-68 -80,-10 -51,18 -74,39 -91,71z"/>
   <path class="fil0" d="M32244 44385c138,-78 225,-186 31,-258 -94,119 -95,135 -31,258z"/>
  </g>
  <g id="_605524504">
   <path class="fil0" d="M41736 61246c480,77 280,-159 643,517 66,122 98,142 124,287l-367 147c-171,-174 -384,-728 -400,-951zm-453 -16l268 -24 319 858 -288 -14 -299 -820zm-768 -149c151,66 26,-72 260,350 76,136 128,325 157,505 -338,-36 -318,8 -365,-306l-88 -403c-8,-248 -13,-60 36,-146zm312 29c306,39 241,63 361,360 73,183 154,341 190,539 -378,-8 -271,-70 -366,-370 -63,-199 -170,-334 -185,-529zm2143 -62c334,-3 322,105 629,74 242,-25 371,17 653,1l49 115c54,169 18,244 58,383 -344,-78 -329,-159 -780,-177 -415,-17 -567,13 -609,-396zm-2455 -631l-440 -80 305 -295 321 117c-61,170 -80,154 -186,258zm-876 -108c80,-221 169,-223 275,-432 336,49 243,65 290,102 -202,286 -334,351 -565,330zm-243 -21c-131,-7 -271,-24 -359,-84 80,-147 154,-187 280,-298 202,-179 107,-194 438,-105 -27,226 -229,374 -359,487zm-5155 -607c13,6 32,1 39,18l298 136c1167,495 2380,518 3295,799 358,110 1914,315 2372,398 7,13 14,18 17,40 3,22 13,29 16,39l197 725c-635,-29 -10,-173 -320,-309l-128 210c-64,-63 -22,3 -68,-89 0,-1 -25,-71 -30,-82l-113 136c-617,-27 -1262,-202 -1846,-307 -56,-229 -88,-548 -247,-650 -51,76 -23,192 -5,272 30,130 48,196 70,339l-290 -22c-156,-189 -137,-587 -270,-679 -192,114 -9,401 24,604l-414 -81c6,-163 45,-450 -32,-551 -35,-29 58,-88 -75,-8 -137,81 -69,361 -59,506 -262,-62 -536,-160 -769,-220 -280,-72 -541,-58 -822,-127 -493,-120 -435,98 -593,-358l-182 -494c-59,-160 -23,-80 -65,-245zm4625 497l-396 -39c96,-251 285,-356 406,-533l383 83c-70,236 -188,204 -393,489zm5498 805c-105,-31 -225,-52 -370,-66 19,-376 339,-606 296,-1015 -188,102 -306,812 -443,1020 -190,-13 -243,-45 -451,-66 -289,-29 -279,-56 -476,-125 72,-411 533,-1254 582,-1492 191,30 203,70 381,108 168,36 258,21 422,78 233,81 528,147 783,173 -77,265 -530,985 -724,1385zm-6088 -868c-111,-17 -71,-3 -163,-32 -147,-47 -80,-36 -116,-59 39,-70 131,-204 195,-296 90,-126 153,-129 254,-240 160,73 124,20 223,130l-393 497zm-3078 -664c24,-185 30,-125 139,-281l119 -194c126,-193 364,-25 696,95 484,175 1621,360 2061,371 -71,270 -223,349 -341,559l-2111 -392c-169,-72 -69,-25 -138,-81 76,-137 190,-226 119,-351 -252,147 -165,513 -544,274zm7585 2338c-153,-65 -263,-376 -418,-645 -172,-295 29,-576 138,-841 243,-590 360,-1416 473,-1680 88,30 163,31 267,306 94,253 -204,511 -436,1215 -118,355 -308,450 -87,781 245,368 259,524 63,864zm-7807 -2380l-282 -58c6,-6 18,-33 21,-25l254 -392c49,-65 76,-102 138,-170 2,-2 92,-90 94,-92 79,-53 32,-34 152,-68 85,221 64,206 -224,626l-153 179zm1057 -1758l685 171c255,48 445,50 707,109 235,53 437,87 663,145 801,203 1109,236 1906,575 254,108 356,98 653,144 111,18 221,57 327,89 165,51 207,32 402,54 4,343 -102,712 -156,1020 -239,-38 -483,-127 -707,-194 -241,-71 -381,-169 -614,-240 -1617,-495 -2919,-483 -4209,-929 96,-310 242,-634 343,-944zm-1462 1682c-353,-70 -425,-98 180,-838 159,-193 690,-627 720,-862 -182,38 -272,206 -384,340 -113,136 -204,235 -333,385l-461 618c-92,128 -97,152 -231,212 33,-227 377,-840 523,-998 323,-348 694,-619 547,-798 -146,64 -298,521 -603,691 43,-210 357,-800 420,-1050 105,-416 -22,-492 274,-423 88,21 169,39 255,65l2321 699c340,69 707,88 1058,160 360,73 607,93 966,204l1409 394c441,188 1035,264 1351,496 -74,344 -433,1294 -588,1745l-169 507c-47,95 -16,39 -50,84 -324,-168 -88,35 -189,-257 -198,-4 -288,-41 -438,-99l-428 -179c173,-366 343,-154 620,-77 104,-126 217,-645 266,-895 68,-350 157,-291 -16,-593 -266,-465 -1214,-408 -1956,-702 -1130,-448 -2143,-592 -3334,-761 -251,-36 -294,-118 -514,-114 -36,63 -186,496 -212,581 -42,142 -129,528 -234,611 -220,174 138,-266 -420,318 -283,296 -238,364 -350,536zm64 1800c284,-150 125,-45 370,-25l1003 134 1354 435c306,74 693,109 1039,184 645,139 1212,381 1980,391 211,2 321,54 507,95 199,44 309,39 515,70 352,54 672,96 1003,191 162,-176 207,-168 246,-344l289 54c2,-246 9,-160 97,-310 60,-102 87,-220 113,-335 172,4 249,21 390,37 232,27 165,-17 352,-32 271,-21 416,145 629,181 175,-244 732,-1039 1025,-1565 -116,-330 -15,-329 -166,-733 -69,-184 42,-91 -119,-193 10,-45 -25,27 -243,28 -242,1 -839,-189 -1026,-229 -310,-67 -416,-8 -711,-567 -362,-688 -803,-522 -1389,-762l-2637 -789 -2184 -376c-565,-126 -1443,-436 -2096,-474 -191,186 -392,829 -553,1195l-553 1202c-95,233 -114,424 -36,681l243 658c243,572 195,910 558,1198z"/>
   <path class="fil0" d="M43261 60554c141,-47 109,-102 183,-255 132,-276 433,-577 358,-760 -182,11 -136,29 -216,217 -131,304 -411,622 -325,798z"/>
   <path class="fil0" d="M43577 60588c96,-37 459,-686 430,-904 -174,98 -202,220 -294,426 -55,123 -208,365 -136,478z"/>
   <path class="fil0" d="M37328 58696c108,-48 110,-44 142,-158 -142,-110 -138,-108 -274,2 88,161 -53,59 132,156z"/>
   <path class="fil0" d="M36246 58460c-53,167 28,129 30,132 226,108 205,-96 96,-229 -75,26 -96,1 -126,97z"/>
   <path class="fil0" d="M36263 57971c-19,260 34,213 64,250 117,-78 125,-143 103,-285l-167 35z"/>
   <path class="fil0" d="M36775 58216c97,-25 95,6 144,-82 82,-149 -14,-139 -14,-140 -164,-76 -166,93 -130,222z"/>
   <path class="fil0" d="M37777 58836c182,-82 209,-258 -36,-231 -30,178 -36,123 36,231z"/>
   <path class="fil0" d="M36708 58520c199,23 241,-97 115,-204 -113,50 -114,-7 -115,204z"/>
  </g>
  <g id="_605526232">
   <path class="fil0" d="M1649 29860c27,-432 448,-804 662,-1053 8,-9 61,-69 77,-86 8,-9 26,-11 32,-33 6,-22 21,-23 33,-34 85,111 203,195 288,301 -58,124 -9,47 -115,160 -205,217 -723,658 -977,745zm7028 -1310c6,-9 17,-20 22,-25 228,-266 106,-310 355,-393 119,300 571,956 413,1335l-158 -9c-51,-23 -80,-58 -126,-107 -157,-168 -402,-582 -506,-801zm-3419 -6136c276,-11 544,50 856,53 741,6 1614,39 2080,673 409,557 692,1151 881,1824 103,368 101,1339 38,1767 -135,926 -70,701 -587,1214 -93,92 -148,205 -221,274 -81,77 -162,94 -268,182 -126,104 -371,312 -503,399 -945,628 -3213,1001 -4330,182 -172,-127 -830,-731 -942,-904 -324,-498 -681,-1444 -651,-2095 24,-548 210,-1292 460,-1790 225,-450 888,-1105 1390,-1360l218 -139c233,-186 450,-173 764,-242l815 -38zm4052 421c280,508 706,1217 687,1949 -278,-49 -517,-472 -646,-692 -489,-836 -1087,-1364 -1478,-2133 -302,-595 908,-84 1437,876zm-8458 1837c-65,-605 1139,-1837 1620,-2286 228,-212 510,-312 743,-521 141,-127 30,-170 230,-113 179,51 112,45 94,194 -80,658 -805,919 -933,1025 -317,264 -691,686 -868,1065 -147,313 -134,394 -306,467l-228 89c-140,61 -165,85 -352,80zm-150 -720c-133,-200 -161,-279 -176,-581 -30,-562 -33,-1636 159,-2093 109,-260 530,-580 953,-505 222,40 695,297 850,463 72,76 34,20 91,132 -233,81 -655,412 -804,590 -208,249 -639,500 -595,760 223,-5 205,-162 365,-312 372,-352 805,-796 1266,-899l184 189c5,-9 22,17 32,27 -523,219 -847,612 -1298,1002 -421,363 -965,1185 -1027,1227zm9374 -1839c251,281 120,93 225,467 444,-85 -116,-635 -203,-764 -289,-425 -497,-447 -623,-746 408,-95 939,-165 1199,132 291,334 460,418 470,943 9,477 -33,845 -178,1254 -125,353 -361,747 -620,897l-189 -422c-331,-581 -775,-1687 -1354,-2060l-294 -233c-5,-18 -19,-19 -28,-29 723,-212 1492,1321 1670,1436 65,-100 52,-52 102,-157 -237,-439 -581,-903 -948,-1208l-315 -227c-121,-101 -37,-15 -100,-109 427,-124 269,-139 880,408 99,89 186,283 306,418zm956 -869c-42,-53 -57,-57 -101,-126 -75,-118 -17,-14 -66,-133l103 -183c641,-34 428,489 295,688 -134,-78 -139,-132 -231,-246zm-10412 -432c-33,-121 -66,-144 -13,-288l149 -214c176,71 238,127 300,332 -180,52 -265,146 -436,170zm-31 3550c35,823 562,534 765,477 -46,400 -91,655 -101,1099 -12,552 292,1348 513,1830 117,256 329,466 472,692 -267,353 -962,656 -862,1358 66,461 456,562 752,284 278,-262 601,-650 924,-874 84,41 192,95 294,153 474,267 1155,562 1709,527 242,-15 629,70 840,-7 220,-81 -112,-34 353,-98l1078 -318 1102 -776c110,77 20,-13 104,81 85,96 149,320 404,583 755,780 960,88 926,-82l-182 -486c-88,-315 -345,-603 -480,-886 50,-146 134,-219 172,-344 58,-189 -28,-157 28,-375 148,-573 85,5 149,-866 54,-738 165,-37 38,-811 -40,-241 9,-192 -82,-413 -66,-162 -95,-281 -118,-443 183,89 93,93 266,208 97,64 189,96 333,119 412,68 385,-32 408,-414 278,-7 391,-130 625,-397 169,-193 294,-485 338,-736 49,-279 111,-232 137,-396 130,-823 -51,-987 -93,-1375 550,-323 56,-1091 -326,-1070 -200,11 -264,161 -368,286 -396,-199 -899,-366 -1464,-194 -346,106 -364,142 -592,304 -274,193 -239,224 -436,466 -355,51 -246,49 -499,129 -26,239 -20,142 -100,289l357 629c-348,-125 -1104,-647 -1983,-555 -356,38 -799,44 -1180,79 -385,34 -739,174 -1090,217l102 -412c-169,-203 -154,-180 -411,-261 -200,-64 -405,-629 -828,-846 -580,-298 -639,-247 -1401,-216 -76,-372 -316,-318 -631,-454 -474,499 33,716 -115,996 -193,365 -260,9 -390,1049 -79,638 -84,1270 206,1855 76,153 115,174 239,296l73 73c5,6 17,17 25,26z"/>
   <path class="fil0" d="M6305 23824c191,8 163,-105 375,59 249,193 739,1255 747,1698 -199,17 -307,-25 -431,63 21,225 63,108 330,148 17,2 29,5 43,8 427,87 -14,1216 -263,1535 -236,301 -859,506 -1399,503 -9,-165 38,-718 -162,-661 -165,47 -15,427 -66,686 -532,41 -1135,-143 -1482,-484 -480,-474 -639,-1339 -478,-1379l505 -30c47,-90 71,-83 75,-199l-615 -8c15,-346 -13,-512 146,-776 327,-548 920,-1036 1590,-1094 4,164 5,343 53,457 176,-108 145,-317 153,-538l879 12zm-3249 2339c34,303 228,727 357,949 169,290 328,542 583,717l516 340c366,221 949,349 1375,320 519,-36 1209,-196 1500,-598 36,-49 34,-46 61,-76 75,-82 65,-43 151,-167l267 -404c174,-280 90,-220 155,-473 118,-461 156,-582 29,-1059 -93,-346 -126,-696 -321,-985 -219,-323 -257,-531 -548,-756l-757 -546c-1233,-473 -3636,352 -3368,2738z"/>
   <path class="fil0" d="M6669 26764c162,-223 -320,-485 -539,-612l-206 -112c-340,-218 60,-824 134,-966 121,-236 407,-660 269,-967 -293,21 -396,450 -658,889 -58,98 -89,159 -142,263 -153,296 53,36 -450,273 -527,249 -86,774 317,782 132,2 239,-71 295,-82 201,-42 714,414 859,490 27,15 108,35 121,42z"/>
   <path class="fil0" d="M2491 24564c244,41 371,-308 479,-503 294,-535 626,-386 377,-667 -93,112 -167,104 -272,224 -195,223 -287,461 -418,662 -86,130 -161,143 -166,284z"/>
   <path class="fil0" d="M1173 22055c221,-16 242,-338 529,-578 108,-90 154,-68 260,-130l-41 -163c-392,64 -710,640 -748,871z"/>
   <path class="fil0" d="M3868 23372c36,125 54,171 155,199 105,-201 39,-434 -155,-199z"/>
   <path class="fil0" d="M2512 25205c122,-112 40,-35 104,-188 -83,-60 4,-30 -136,-51 -90,120 -129,178 32,239z"/>
   <path class="fil0" d="M2467 25866c72,-90 196,-64 45,-238 -170,84 -153,114 -45,238z"/>
  </g>
  <g id="_605527336">
   <path class="fil0" d="M25052 55323c583,185 1250,595 1529,1048 319,518 -1,1584 -274,2011 -606,945 -1170,1252 -1296,2573 -37,380 3,926 -41,1262 -373,-203 -598,-660 -1782,-1054 -808,-269 -1197,168 -2496,-254l-1604 -515 -1372 -745c-410,-295 -509,-293 -469,-989 36,-640 336,-1259 840,-1649 209,-161 110,-199 568,-471 145,-87 272,-179 434,-284 183,-120 264,-158 509,-219 219,-54 334,-91 551,-165 320,-110 268,17 698,-154 413,-163 1171,-331 1601,-388 491,-65 797,-98 1297,-12 309,54 326,8 630,-2 128,-5 217,-7 339,28l248 127c82,-61 2,21 52,-61l38 -87zm-226 159c-76,2 150,-3 0,0zm-3137 -692c-825,119 -771,-95 -2078,288 -306,90 -566,164 -846,318 -190,104 -551,336 -692,475 -975,966 -1472,1707 -1200,3324 27,163 290,671 392,770 102,102 187,179 312,272 462,344 215,287 1042,711l1219 533c231,79 127,99 439,147l953 215c343,89 641,118 992,176 674,113 817,-298 2069,236 702,299 1133,1341 1058,189 -109,-1669 544,-1881 937,-2592 115,-209 692,-602 904,-1477 163,-673 162,-1301 -189,-1936 -207,-374 -808,-1000 -1143,-1187 -950,-530 -1046,-277 -1902,-437 -461,-85 -1811,-91 -2267,-25z"/>
   <path class="fil0" d="M19029 57491c45,116 29,56 95,165 483,80 635,-331 1172,-422 409,-69 989,196 1384,249 600,79 384,-331 1394,-181 347,52 1171,147 1463,-3 -80,-354 -759,-149 -1468,-202 -243,-19 -511,-103 -746,-73 -301,38 -446,164 -653,207 -708,147 -1401,-802 -2641,260z"/>
   <path class="fil0" d="M19105 59292c211,406 720,58 1003,-2 23,-5 1389,-53 1430,-50 190,11 418,64 624,98 487,82 1558,189 1932,6 -335,-215 -726,-153 -1204,-162 -505,-9 -861,-98 -1305,-144 -442,-46 -2078,-69 -2480,254z"/>
   <path class="fil0" d="M23231 58907c216,-42 157,-116 256,-276 97,-157 183,-162 148,-399 -204,10 -184,133 -262,279 -86,160 -188,201 -142,396z"/>
   <path class="fil0" d="M23689 58945c110,2 386,-363 392,-484 -231,-32 -402,404 -392,484z"/>
   <path class="fil0" d="M24922 57440c499,-105 -226,-498 0,0z"/>
   <path class="fil0" d="M25663 57266c129,130 206,125 241,-86 -109,-1 -43,-29 -159,18 -18,7 -81,62 -82,68z"/>
  </g>
  <g id="_605528824">
   <path class="fil0" d="M3916 14342c217,-35 302,86 706,-13 397,-98 431,-22 794,-25 347,-4 422,-62 805,6 606,109 1261,14 1761,33 1044,40 1334,-180 2465,39 -28,194 -76,418 -248,499 -12,6 -89,26 -103,30l-3013 316c-712,15 -1295,-89 -1984,-93 -232,-2 -705,-81 -888,-150 -283,-106 -396,-267 -295,-642zm104 -223c-89,-195 341,-544 520,-808 220,-326 70,-166 386,-341 140,-77 287,-273 822,-574 420,-237 247,-95 484,-189 172,-68 293,-176 496,-216 927,-180 2006,-270 2719,367 305,271 382,424 619,780 199,298 337,611 400,1014 -669,-114 -817,-139 -1536,-92 -546,36 -1104,21 -1668,46 -643,29 -1706,-109 -2523,-57 -250,16 -477,160 -719,70zm676 -7049c168,258 252,401 404,724 263,562 1796,3245 1892,3594l-495 97 -704 -1465c-233,-526 -1083,-2012 -1478,-2801 -216,-433 -652,-964 -768,-1366 82,-69 165,-54 377,-222 262,466 491,1008 772,1439zm-1344 -2621c92,-10 172,77 238,168 483,665 -217,1246 -525,795 -106,-155 -131,-473 -102,-618 87,-439 203,-324 389,-345zm9808 8c117,-109 305,-200 512,-245 11,336 51,430 305,484l242 76c-116,298 -439,551 -802,379 -111,-405 87,-385 -257,-694zm1640 -821c124,368 215,845 21,1262 -179,386 -360,517 -750,698 -445,207 -591,336 -1149,97 -338,-145 -420,-347 -558,-527 -79,-103 -92,-101 -123,-284 114,-64 216,-120 347,-194 692,-391 500,510 710,663 243,175 576,86 768,-81 824,-720 -12,-775 -55,-790 -125,-44 -120,96 -166,-380 154,-94 788,-415 955,-464zm-4675 221c125,-105 151,-181 297,-293l728 -443c198,-109 251,-40 458,-130 253,-110 566,-264 807,-363 294,-121 197,-121 383,-205 174,-78 248,-72 404,-177 69,-46 116,-84 183,-129l1422 -613c320,-133 592,14 876,158 307,156 525,141 709,404 -92,80 -581,469 -692,521 -464,214 -103,-66 -766,450 -671,521 -1534,958 -2334,1315 -824,367 -442,242 -790,423 -164,86 -285,88 -447,184 -133,78 -206,126 -376,211 -276,138 -464,365 -808,424 -19,-609 38,-1209 -54,-1737zm-6370 598c198,-142 621,-239 906,-395 454,-249 1365,-659 1723,-891 631,-408 999,-558 1694,-917 299,-155 578,-246 910,-397l1691 -858c65,318 58,540 48,847l-1663 727c-526,286 -1085,503 -1661,728 -482,189 -72,126 -888,330 -624,155 -978,378 -1710,671 -255,102 -604,351 -785,402 -154,-126 -73,-138 -265,-247zm8339 -2150c99,-260 564,-963 751,-1145l102 89c186,201 152,296 141,487 -110,96 -304,262 -476,303 53,-152 111,-188 187,-330 166,-312 -25,-269 -44,-277l-64 120c-4,10 -7,23 -11,34 -27,74 -15,63 -47,134 -203,460 -271,494 -539,585zm-798 372c35,-144 386,-692 460,-792 68,-91 128,-125 195,-214 304,-399 411,-831 690,-936 99,254 96,208 29,340l-497 773c-354,545 -369,757 -877,829zm-180 -219c-48,-158 -102,-209 -35,-346l843 -1275c286,-479 236,-429 449,-359 100,336 -754,1279 -877,1502 -57,104 -100,174 -151,253 -102,157 -118,182 -229,225zm-27 -642c-5,-10 -11,-25 -13,-32 -110,-407 183,-593 321,-844l348 -600c113,-137 -8,-104 267,-77 -30,203 -852,1475 -923,1553zm-105 -584c-127,-520 170,-790 555,-954l-555 954zm-8210 3243c-253,254 -137,1029 416,1301 205,101 174,174 290,394 84,160 131,314 217,459l705 1321c484,880 1004,1732 1391,2660 122,292 379,719 447,974 -88,30 -213,51 -304,105 -748,446 -1123,763 -1657,1491 -186,254 -543,608 -574,925 -18,190 6,7 -46,157 -76,225 10,539 134,688 91,110 136,89 273,175 100,63 185,101 312,135 776,210 2687,337 3321,256 206,-27 144,24 355,-5 109,-15 272,-57 382,-69 735,-80 637,46 1618,-190 203,-49 379,-9 557,-110 62,-36 54,-38 145,-66 19,-151 40,-238 63,-396 35,-239 -78,-301 -29,-523 134,-614 -249,-971 -568,-1448 -191,-285 -412,-484 -704,-692 -223,-159 -270,-200 -602,-341 -443,-190 -1046,-257 -1563,-336l-412 -802c-157,-275 -306,-478 -437,-780 -198,-455 -431,-793 -621,-1224 -72,-162 -151,-244 -241,-389 -150,-241 -272,-592 -421,-795 -170,-233 -1106,-1717 -1139,-1956l73 -463c93,-103 275,-111 390,-173 160,-88 216,-137 364,-226 259,-155 550,-196 821,-351 289,-165 405,-287 794,-375 168,-38 322,-59 488,-103l1255 -542c269,-138 548,-246 822,-394 269,-145 1520,-699 1696,-722l214 745c-160,117 -1054,593 -1151,959 -28,105 -141,1698 -81,1916 52,187 118,106 259,71 396,-98 129,181 1430,-417 254,-117 194,-221 606,-265 245,534 682,849 1264,984 236,55 568,30 787,-49 173,-62 131,-102 287,-205 138,-92 207,-74 314,-132 109,-59 135,-144 230,-222 370,-302 570,-868 435,-1355 -13,-45 -100,-255 -127,-316 -25,-58 -42,-86 -76,-152 -77,-151 -40,-30 -84,-189 92,-32 210,-43 285,-81 31,-16 168,-131 229,-174 414,-292 523,-323 957,-663 171,-134 387,-154 599,-114 -7,-396 -392,-451 -686,-613 -433,-237 -910,-470 -1399,-583 -467,-108 -1014,286 -1466,444 -197,-238 25,-118 -359,-328 -140,-76 -323,-531 -588,-810 -144,-152 -267,-132 -371,-342 -219,-5 -316,-76 -438,-154 -300,27 -512,-20 -733,125 -144,94 -283,276 -356,488 -52,149 -43,189 -178,249 -95,42 -195,72 -320,128l-2903 1370c-799,402 -1433,821 -2236,1186 -194,89 -361,190 -563,290 -320,159 -508,310 -817,445 -205,89 -139,4 -360,-9 -78,-4 -304,26 -338,39l-198 107c-94,56 -12,-7 -79,57z"/>
   <path class="fil0" d="M16179 4353c99,39 166,169 381,208l1208 191c887,145 620,-153 286,-321 -167,-85 -1009,-169 -1246,-178 -506,-19 -196,-75 -629,-117l0 217z"/>
   <path class="fil0" d="M12510 8576c126,-324 291,-1513 275,-1901 -201,-128 51,-87 -210,-93 -126,170 -208,832 -279,1100 -90,343 -257,883 214,894z"/>
   <path class="fil0" d="M14538 8363c27,-239 -146,-753 -210,-937 -62,-175 -78,-265 -131,-446 -38,-130 -41,-86 -102,-171 -109,-153 15,-96 -169,-155 -236,133 -11,441 102,999 79,382 167,782 510,710z"/>
   <path class="fil0" d="M17470 6619c-67,-173 -58,-39 -154,-200 -63,-107 -17,-108 -103,-221l-135 133c-265,-114 -456,-252 -683,-375 -217,-117 -368,-305 -695,-313 -25,151 3,154 92,231 215,186 427,328 690,437 311,129 622,476 988,308z"/>
   <path class="fil0" d="M14918 6388c-76,137 -18,149 140,407 105,172 396,626 560,787 111,108 222,209 448,185 48,-264 -132,-143 -512,-751 -126,-201 -358,-731 -636,-628z"/>
   <path class="fil0" d="M6360 12428c-507,56 -1242,1135 -1115,1264 195,199 202,-225 506,-614l425 -344c209,-113 140,-26 179,-135 26,-74 9,-97 5,-171z"/>
   <path class="fil0" d="M6046 13689c141,-111 63,-302 412,-584 103,-83 112,-49 111,-209 -266,-19 -335,155 -451,319 -37,51 -129,196 -157,254 -79,161 -82,170 85,220z"/>
   <path class="fil0" d="M6524 13666l44 171c141,-58 55,78 123,-81 19,-44 -1,-104 -8,-164 -83,23 -129,21 -159,74z"/>
   <path class="fil0" d="M3521 5097c-45,-146 -6,-120 -126,-178 -74,133 -53,156 126,178z"/>
  </g>
  <g id="_605530576">
   <path class="fil0" d="M26038 26392c106,-103 260,-242 395,-296 0,793 -20,1521 -52,2306 -26,646 -194,1026 -844,891l-497 -117 -74 -1756 1072 -1028zm-1057 435c-7,-212 -91,-848 -12,-1006 66,-132 100,-82 189,-129 228,-118 -12,-36 304,-371l1144 -884c370,-191 583,-515 831,-473 376,632 100,3678 50,4573 -25,425 -39,1762 -526,1938 -648,234 -1497,-124 -1930,-361l0 -589c641,221 864,468 1461,197 388,-177 358,-331 471,-728 42,-149 38,-49 86,-228 81,-307 -32,-1676 -109,-1968 -155,-595 181,-755 -446,-1028l-221 -41c-393,25 -1194,1047 -1292,1098zm-1075 5806c-326,52 -692,202 -933,338 -988,562 -2257,400 -3349,303 -1321,-117 -1890,-781 -2249,-957l-695 -566c-105,-120 -182,-236 -350,-312 -7,-141 -31,-272 -14,-362 127,-695 76,-516 143,-1194l50 -1663c-20,-364 93,-1057 -27,-1686l-147 -1651c362,105 654,347 1397,266 194,-21 335,-34 542,-36 777,-10 1482,-113 2252,-149 561,-26 2224,55 2334,41 270,-37 1099,-310 1283,-463 125,-103 227,-205 390,-246 -93,420 -112,1633 -104,2123l-1 2231c-38,617 -2,1395 -122,2077 -61,349 -43,701 -96,1033 -75,472 -251,495 -304,873zm-7751 -8998c154,-773 671,-942 939,-1232 102,-111 47,-101 181,-182 503,-308 1889,-545 2574,-586 1029,-61 1606,4 2550,205 132,29 150,67 262,93 563,133 687,-52 1416,351 234,130 268,87 522,155 30,423 28,607 -246,802 -564,-496 -992,-372 -1486,-416 -174,-16 -305,-70 -494,-77 -222,-9 -405,9 -616,-26 -241,-41 -294,-67 -554,-69 -412,-4 -765,-73 -1170,-41 -392,31 -2892,313 -3213,469l-531 410c-94,74 -95,156 -112,117 -4,-7 -15,18 -22,27zm1637 -2012c130,-98 85,-25 220,-156 -9,-5 -24,-25 -28,-14l-82 -2c-358,89 -610,146 -957,400 -1703,1246 -974,2050 -987,2587 -18,765 39,1368 20,2297 -17,820 -256,4111 -128,4456 77,208 495,757 633,893l1066 865c492,297 1416,697 1988,762 1354,153 2622,366 3944,-244 662,-306 221,-35 733,-435 131,-103 110,-53 88,-224 181,-25 145,11 239,-77 163,-150 -55,-39 195,-143 12,-92 37,-174 49,-242 14,-79 15,-147 27,-237l169 -1508c225,38 550,211 718,326 208,142 151,9 529,281 312,224 1410,343 1694,-312 303,-699 351,-814 394,-1730 32,-690 76,-1355 118,-2025 37,-595 15,-1939 -120,-2531 -42,-182 -255,-583 -376,-695l-319 -224c-109,-52 -55,-50 -170,-75 -346,-75 -394,-157 -666,-73 -453,141 -1123,872 -1466,1228 -176,183 -93,184 -314,282 11,-382 -75,-1327 29,-1507 111,-191 125,-101 132,-413 8,-333 -137,-590 -303,-780 -173,-198 -328,-421 -530,-543 -369,-223 -405,-328 -660,-367 -326,-50 -683,-14 -991,-97l-1974 -200c-4,7 -12,11 -13,21l-96 -1c-4,-4 -18,-15 -26,-23 -208,87 -243,25 -375,219l-165 -121c-92,97 -25,48 -129,83 46,-55 73,-74 136,-132 -315,69 2,92 -397,115 -400,22 -448,-68 -621,6 -6,2 -22,12 -29,14 -164,62 -172,-54 -277,175 -157,-125 -26,-44 -190,-76 -16,-3 -25,-8 -41,-9 -55,-6 -31,41 -130,-52 39,146 40,72 12,138 -84,-25 -50,3 -101,-51 -3,-3 -8,-16 -11,-19l-165 -17c-3,7 -8,11 -9,20 -1,10 -9,18 -10,20 -63,126 -65,47 -29,136l-248 31z"/>
   <path class="fil0" d="M23948 28073c203,-223 54,-1001 49,-1337 -4,-320 70,-1191 -94,-1381 -281,73 -111,736 -127,1290 -8,285 33,487 33,764 0,287 -64,548 139,664z"/>
   <path class="fil0" d="M17312 28176c-103,-557 -65,-2150 -111,-2361 -40,-183 -30,-160 -142,-190 -133,195 -9,1201 9,1514 16,284 -19,1111 36,1169 62,64 174,-32 208,-132z"/>
   <path class="fil0" d="M21447 32828l45 143c301,-47 -68,-71 697,-130l672 -219c350,-108 1067,-538 1050,-719 -31,-327 -726,626 -1765,747 -241,28 -546,76 -699,178z"/>
   <path class="fil0" d="M23303 29898c35,-132 89,-65 81,-414 -9,-327 97,-1580 24,-1783 -112,-7 -184,-144 -204,395 -8,197 0,417 -3,620 -5,353 -120,968 102,1182z"/>
   <path class="fil0" d="M17674 27155l217 -120c-9,-206 -51,-381 -41,-661 5,-143 57,-626 -106,-599 -152,26 -68,476 -71,645 -4,240 -49,505 1,735z"/>
   <path class="fil0" d="M18500 26755l118 -34 -146 -729c-60,-171 -40,-126 -152,-151 -80,154 73,775 180,914z"/>
   <path class="fil0" d="M21716 32351c145,-1 255,-133 381,-219 148,-101 258,-121 387,-245 -205,-123 -719,244 -768,464z"/>
   <path class="fil0" d="M23740 28716l154 134c113,-156 119,-165 9,-286 -140,70 -86,15 -163,152z"/>
   <path class="fil0" d="M23732 29194l14 155c26,1 100,114 169,-27 41,-86 -12,-131 -37,-174l-146 46z"/>
   <path class="fil0" d="M19535 26072l76 -143 -139 -77c-38,178 -37,144 63,220z"/>
   <path class="fil0" d="M18976 26014c58,65 115,85 181,-37 -67,-45 -148,-81 -181,37z"/>
  </g>
 </g>
</svg>
